<svg width="12" height="12" viewBox="0 0 12 12" fill="none" xmlns="http://www.w3.org/2000/svg">
<path d="M6.8625 8.6375C6.62083 8.39583 6.5 8.1 6.5 7.75C6.5 7.4 6.62083 7.10417 6.8625 6.8625C7.10417 6.62083 7.4 6.5 7.75 6.5C8.1 6.5 8.39583 6.62083 8.6375 6.8625C8.87917 7.10417 9 7.4 9 7.75C9 8.1 8.87917 8.39583 8.6375 8.6375C8.39583 8.87917 8.1 9 7.75 9C7.4 9 7.10417 8.87917 6.8625 8.6375ZM3 11C2.725 11 2.48958 10.9021 2.29375 10.7063C2.09792 10.5104 2 10.275 2 10V3C2 2.725 2.09792 2.48958 2.29375 2.29375C2.48958 2.09792 2.725 2 3 2H3.5V1H4.5V2H8.5V1H9.5V2H10C10.275 2 10.5104 2.09792 10.7063 2.29375C10.9021 2.48958 11 2.725 11 3V10C11 10.275 10.9021 10.5104 10.7063 10.7063C10.5104 10.9021 10.275 11 10 11H3ZM3 10H10V5H3V10ZM3 4H10V3H3V4Z" fill="#086F7F"/>
</svg>
