<svg width="12" height="12" viewBox="0 0 12 12" fill="none" xmlns="http://www.w3.org/2000/svg">
<path d="M3.64375 6.85625C3.54792 6.76042 3.5 6.64167 3.5 6.5C3.5 6.35833 3.54792 6.23958 3.64375 6.14375C3.73958 6.04792 3.85833 6 4 6C4.14167 6 4.26042 6.04792 4.35625 6.14375C4.45208 6.23958 4.5 6.35833 4.5 6.5C4.5 6.64167 4.45208 6.76042 4.35625 6.85625C4.26042 6.95208 4.14167 7 4 7C3.85833 7 3.73958 6.95208 3.64375 6.85625ZM5.64375 6.85625C5.54792 6.76042 5.5 6.64167 5.5 6.5C5.5 6.35833 5.54792 6.23958 5.64375 6.14375C5.73958 6.04792 5.85833 6 6 6C6.14167 6 6.26042 6.04792 6.35625 6.14375C6.45208 6.23958 6.5 6.35833 6.5 6.5C6.5 6.64167 6.45208 6.76042 6.35625 6.85625C6.26042 6.95208 6.14167 7 6 7C5.85833 7 5.73958 6.95208 5.64375 6.85625ZM7.64375 6.85625C7.54792 6.76042 7.5 6.64167 7.5 6.5C7.5 6.35833 7.54792 6.23958 7.64375 6.14375C7.73958 6.04792 7.85833 6 8 6C8.14167 6 8.26042 6.04792 8.35625 6.14375C8.45208 6.23958 8.5 6.35833 8.5 6.5C8.5 6.64167 8.45208 6.76042 8.35625 6.85625C8.26042 6.95208 8.14167 7 8 7C7.85833 7 7.73958 6.95208 7.64375 6.85625ZM2.5 11C2.225 11 1.98958 10.9021 1.79375 10.7063C1.59792 10.5104 1.5 10.275 1.5 10V3C1.5 2.725 1.59792 2.48958 1.79375 2.29375C1.98958 2.09792 2.225 2 2.5 2H3V1H4V2H8V1H9V2H9.5C9.775 2 10.0104 2.09792 10.2063 2.29375C10.4021 2.48958 10.5 2.725 10.5 3V10C10.5 10.275 10.4021 10.5104 10.2063 10.7063C10.0104 10.9021 9.775 11 9.5 11H2.5ZM2.5 10H9.5V5H2.5V10ZM2.5 4H9.5V3H2.5V4Z" fill="#086F7F"/>
</svg>
