<svg width="16" height="16" viewBox="0 0 16 16" fill="none" xmlns="http://www.w3.org/2000/svg">
<path d="M8.00001 11.9999C9.11112 11.9999 10.0556 11.611 10.8333 10.8333C11.6111 10.0555 12 9.11103 12 7.99992C12 6.88881 11.6111 5.94436 10.8333 5.16659C10.0556 4.38881 9.11112 3.99992 8.00001 3.99992V7.99992L5.16668 10.8333C5.55557 11.1999 5.99168 11.486 6.47501 11.6916C6.95834 11.8971 7.46668 11.9999 8.00001 11.9999ZM8.00001 14.6666C7.07779 14.6666 6.21112 14.4916 5.40001 14.1416C4.5889 13.7916 3.88334 13.3166 3.28334 12.7166C2.68334 12.1166 2.20834 11.411 1.85834 10.5999C1.50834 9.78881 1.33334 8.92214 1.33334 7.99992C1.33334 7.0777 1.50834 6.21103 1.85834 5.39992C2.20834 4.58881 2.68334 3.88325 3.28334 3.28325C3.88334 2.68325 4.5889 2.20825 5.40001 1.85825C6.21112 1.50825 7.07779 1.33325 8.00001 1.33325C8.92223 1.33325 9.7889 1.50825 10.6 1.85825C11.4111 2.20825 12.1167 2.68325 12.7167 3.28325C13.3167 3.88325 13.7917 4.58881 14.1417 5.39992C14.4917 6.21103 14.6667 7.0777 14.6667 7.99992C14.6667 8.92214 14.4917 9.78881 14.1417 10.5999C13.7917 11.411 13.3167 12.1166 12.7167 12.7166C12.1167 13.3166 11.4111 13.7916 10.6 14.1416C9.7889 14.4916 8.92223 14.6666 8.00001 14.6666ZM8.00001 13.3333C9.4889 13.3333 10.75 12.8166 11.7833 11.7833C12.8167 10.7499 13.3333 9.48881 13.3333 7.99992C13.3333 6.51103 12.8167 5.24992 11.7833 4.21659C10.75 3.18325 9.4889 2.66659 8.00001 2.66659C6.51112 2.66659 5.25001 3.18325 4.21668 4.21659C3.18334 5.24992 2.66668 6.51103 2.66668 7.99992C2.66668 9.48881 3.18334 10.7499 4.21668 11.7833C5.25001 12.8166 6.51112 13.3333 8.00001 13.3333Z" fill="#E3E3E3"/>
</svg>
